#Comment line ignore any data following # character 
#Hierarchical Translation and Rotation (.htr) file 
[Header]	
#Header keywords are followed by a single value 
FileType HTR		#Single word string
DataType HTRS		#Translation followed by rotation and scale data
FileVersion 1		#integer
NumSegments 64		#integer
NumFrames 3		#integer
DataFrameRate 30		#integer, data frame rate in this file
EulerRotationOrder ZYX
CalibrationUnits mm
RotationUnits Degrees
GlobalAxisofGravity Y
BoneLengthAxis Y
ScaleFactor 1.00
[SegmentNames&Hierarchy]
#CHILD	PARENT
Pinger_Root GLOBAL
Pelvis Pinger_Root
L_Hip Pelvis
R_Hip Pelvis
Rear_Leg01 Pelvis
Spine1 Pelvis
L_Leg01 L_Hip
L_Leg02 L_Leg01
L_Leg03 L_Leg02
L_Foot L_Leg03
L_Toe1_01 L_Foot
L_Toe2_01 L_Foot
L_Toe3_01 L_Foot
planeAlignerLeft L_Foot
L_Toe1_02 L_Toe1_01
L_Toe1_03 L_Toe1_02
L_Toe2_02 L_Toe2_01
L_Toe2_03 L_Toe2_02
L_Toe3_02 L_Toe3_01
L_Toe3_03 L_Toe3_02
planeLockWeightLeft planeAlignerLeft
R_Leg01 R_Hip
R_Leg02 R_Leg01
R_Leg03 R_Leg02
R_Foot R_Leg03
planeAlignerRight R_Foot
R_Toe1_01 R_Foot
R_Toe2_01 R_Foot
R_Toe3_01 R_Foot
planeLockWeightRight planeAlignerRight
R_Toe1_02 R_Toe1_01
R_Toe1_03 R_Toe1_02
R_Toe2_02 R_Toe2_01
R_Toe2_03 R_Toe2_02
R_Toe3_02 R_Toe3_01
R_Toe3_03 R_Toe3_02
Rear_Leg02 Rear_Leg01
Rear_Leg03 Rear_Leg02
Rear_Leg04 Rear_Leg03
Rear_Foot Rear_Leg04
planeAlignerCenter Rear_Foot
Rear_Toe1_01 Rear_Foot
Rear_Toe2_01 Rear_Foot
Rear_Toe3_01 Rear_Foot
planeLockWeightCenter planeAlignerCenter
Rear_Toe1_02 Rear_Toe1_01
Rear_Toe1_03 Rear_Toe1_02
Rear_Toe2_02 Rear_Toe2_01
Rear_Toe2_03 Rear_Toe2_02
Rear_Toe3_02 Rear_Toe3_01
Rear_Toe3_03 Rear_Toe3_02
Back_Bone Spine1
Head Spine1
Motor_Bone Back_Bone
Ping_Mechanism Back_Bone
BN_LookIK Head
bottomMouth Head
L_Mouth01 Head
L_mouthFront Head
mouthGun Head
R_Mouth01 Head
R_mouthFront Head
TopMouth Head
weapon_bone Head
[BasePosition]
#SegmentName Tx, Ty, Tz, Rx, Ry, Rz, BoneLength
Pinger_Root 0.000000 0.000000 0.000000 -90.000000 0.000000 0.000000 10.000000 
Pelvis 0.000000 0.000000 0.000000 0.000000 0.000000 0.000000 10.000000 
L_Hip 0.000000 0.000000 0.000000 0.000000 0.000000 0.000000 10.000000 
R_Hip 0.000000 0.000000 0.000000 0.000000 0.000000 0.000000 10.000000 
Rear_Leg01 0.000000 0.000000 0.000000 0.000000 0.000000 0.000000 10.000000 
Spine1 0.000000 0.000000 0.000000 0.000000 0.000000 0.000000 10.000000 
L_Leg01 0.000000 0.000000 0.000000 0.000000 0.000000 0.000000 10.000000 
L_Leg02 0.000000 0.000000 0.000000 0.000000 0.000000 0.000000 10.000000 
L_Leg03 0.000000 0.000000 0.000000 0.000000 0.000000 0.000000 10.000000 
L_Foot 0.000000 0.000000 0.000000 0.000000 0.000000 0.000000 10.000000 
L_Toe1_01 0.000000 0.000000 0.000000 0.000000 0.000000 0.000000 10.000000 
L_Toe2_01 0.000000 0.000000 0.000000 0.000000 0.000000 0.000000 10.000000 
L_Toe3_01 0.000000 0.000000 0.000000 0.000000 0.000000 0.000000 10.000000 
planeAlignerLeft 0.000000 0.000000 0.000000 0.000000 0.000000 0.000000 10.000000 
L_Toe1_02 0.000000 0.000000 0.000000 0.000000 0.000000 0.000000 10.000000 
L_Toe1_03 0.000000 0.000000 0.000000 0.000000 0.000000 0.000000 10.000000 
L_Toe2_02 0.000000 0.000000 0.000000 0.000000 0.000000 0.000000 10.000000 
L_Toe2_03 0.000000 0.000000 0.000000 0.000000 0.000000 0.000000 10.000000 
L_Toe3_02 0.000000 0.000000 0.000000 0.000000 0.000000 0.000000 10.000000 
L_Toe3_03 0.000000 0.000000 0.000000 0.000000 0.000000 0.000000 10.000000 
planeLockWeightLeft 0.000000 0.000000 0.000000 0.000000 0.000000 0.000000 10.000000 
R_Leg01 0.000000 0.000000 0.000000 0.000000 0.000000 0.000000 10.000000 
R_Leg02 0.000000 0.000000 0.000000 0.000000 0.000000 0.000000 10.000000 
R_Leg03 0.000000 0.000000 0.000000 0.000000 0.000000 0.000000 10.000000 
R_Foot 0.000000 0.000000 0.000000 0.000000 0.000000 0.000000 10.000000 
planeAlignerRight 0.000000 0.000000 0.000000 0.000000 0.000000 0.000000 10.000000 
R_Toe1_01 0.000000 0.000000 0.000000 0.000000 0.000000 0.000000 10.000000 
R_Toe2_01 0.000000 0.000000 0.000000 0.000000 0.000000 0.000000 10.000000 
R_Toe3_01 0.000000 0.000000 0.000000 0.000000 0.000000 0.000000 10.000000 
planeLockWeightRight 0.000000 0.000000 0.000000 0.000000 0.000000 0.000000 10.000000 
R_Toe1_02 0.000000 0.000000 0.000000 0.000000 0.000000 0.000000 10.000000 
R_Toe1_03 0.000000 0.000000 0.000000 0.000000 0.000000 0.000000 10.000000 
R_Toe2_02 0.000000 0.000000 0.000000 0.000000 0.000000 0.000000 10.000000 
R_Toe2_03 0.000000 0.000000 0.000000 0.000000 0.000000 0.000000 10.000000 
R_Toe3_02 0.000000 0.000000 0.000000 0.000000 0.000000 0.000000 10.000000 
R_Toe3_03 0.000000 0.000000 0.000000 0.000000 0.000000 0.000000 10.000000 
Rear_Leg02 0.000000 0.000000 0.000000 0.000000 0.000000 0.000000 10.000000 
Rear_Leg03 0.000000 0.000000 0.000000 0.000000 0.000000 0.000000 10.000000 
Rear_Leg04 0.000000 0.000000 0.000000 0.000000 0.000000 0.000000 10.000000 
Rear_Foot 0.000000 0.000000 0.000000 0.000000 0.000000 0.000000 10.000000 
planeAlignerCenter 0.000000 0.000000 0.000000 0.000000 0.000000 0.000000 10.000000 
Rear_Toe1_01 0.000000 0.000000 0.000000 0.000000 0.000000 0.000000 10.000000 
Rear_Toe2_01 0.000000 0.000000 0.000000 0.000000 0.000000 0.000000 10.000000 
Rear_Toe3_01 0.000000 0.000000 0.000000 0.000000 0.000000 0.000000 10.000000 
planeLockWeightCenter 0.000000 0.000000 0.000000 0.000000 0.000000 0.000000 10.000000 
Rear_Toe1_02 0.000000 0.000000 0.000000 0.000000 0.000000 0.000000 10.000000 
Rear_Toe1_03 0.000000 0.000000 0.000000 0.000000 0.000000 0.000000 10.000000 
Rear_Toe2_02 0.000000 0.000000 0.000000 0.000000 0.000000 0.000000 10.000000 
Rear_Toe2_03 0.000000 0.000000 0.000000 0.000000 0.000000 0.000000 10.000000 
Rear_Toe3_02 0.000000 0.000000 0.000000 0.000000 0.000000 0.000000 10.000000 
Rear_Toe3_03 0.000000 0.000000 0.000000 0.000000 0.000000 0.000000 10.000000 
Back_Bone 0.000000 0.000000 0.000000 0.000000 0.000000 0.000000 10.000000 
Head 0.000000 0.000000 0.000000 0.000000 0.000000 0.000000 10.000000 
Motor_Bone 0.000000 0.000000 0.000000 0.000000 0.000000 0.000000 10.000000 
Ping_Mechanism 0.000000 0.000000 0.000000 0.000000 0.000000 0.000000 10.000000 
BN_LookIK 0.000000 0.000000 0.000000 0.000000 0.000000 0.000000 10.000000 
bottomMouth 0.000000 0.000000 0.000000 0.000000 0.000000 0.000000 10.000000 
L_Mouth01 0.000000 0.000000 0.000000 0.000000 0.000000 0.000000 10.000000 
L_mouthFront 0.000000 0.000000 0.000000 0.000000 0.000000 0.000000 10.000000 
mouthGun 0.000000 0.000000 0.000000 0.000000 0.000000 0.000000 10.000000 
R_Mouth01 0.000000 0.000000 0.000000 0.000000 0.000000 0.000000 10.000000 
R_mouthFront 0.000000 0.000000 0.000000 0.000000 0.000000 0.000000 10.000000 
TopMouth 0.000000 0.000000 0.000000 0.000000 0.000000 0.000000 10.000000 
weapon_bone 0.000000 0.000000 0.000000 0.000000 0.000000 0.000000 10.000000 
#Beginning of Data. Separated by tabs
#Fr	Tx	Ty	Tz	Rx	Ry	Rz	SF
[Pinger_Root]
133 0.000000 0.000000 0.000000 -0.000075 -0.000000 -0.000020 0.000000
134 0.000000 0.000000 0.000000 -0.000075 -0.000000 -0.000020 0.000000
135 0.000000 0.000000 0.000000 -0.000075 -0.000000 -0.000020 0.000000
[Pelvis]
133 -1890.781982 1153.612305 4900.815918 -155.978470 -81.466248 155.281799 5378.092285
134 -1959.553955 1154.482910 5006.126465 -163.554077 -79.671127 162.986389 5498.543945
135 -1943.213257 1155.295288 5001.253418 -162.430405 -78.367378 161.897202 5488.471680
[L_Hip]
133 5.766392 125.831482 872.656799 -122.831955 -74.243431 31.115654 881.701050
134 5.766392 125.831482 872.656799 -122.344627 -74.277054 30.574732 881.701050
135 5.766392 125.831482 872.656799 -121.855141 -74.309319 30.031704 881.701050
[R_Hip]
133 5.765438 125.836372 -872.654907 -61.089554 72.192421 26.769068 881.699829
134 5.765438 125.836372 -872.654907 -61.811600 72.272102 26.167450 881.699829
135 5.765438 125.836372 -872.654907 -61.813614 72.272308 26.165701 881.699829
[Rear_Leg01]
133 -192.298416 -925.602966 -0.001907 -173.973083 10.988014 -121.553177 945.367432
134 -192.298416 -925.602966 -0.001907 -175.672745 10.096893 -121.912346 945.367432
135 -192.298416 -925.602966 -0.001907 -176.871155 9.263906 -123.237488 945.367432
[Spine1]
133 290.604584 5.007505 0.000477 -0.052867 1.343798 16.543491 290.647736
134 290.604584 5.007505 0.000477 -0.090104 1.438447 16.260868 290.647736
135 290.604584 5.007505 0.000477 -0.127799 1.532884 15.978082 290.647736
[L_Leg01]
133 761.932007 -0.002384 -0.069261 71.707298 24.788925 -116.722031 761.932068
134 761.932007 -0.002384 -0.069261 71.553848 27.826313 -116.393326 761.932068
135 761.932007 -0.002384 -0.069261 72.029152 25.786543 -114.226814 761.932068
[L_Leg02]
133 1441.140503 -0.000954 -0.000715 -1.105076 0.117174 -22.240726 1441.140503
134 1441.140503 -0.000954 -0.000715 -1.304669 0.258724 -16.369898 1441.140503
135 1441.140503 -0.000954 -0.000715 -1.201551 0.174284 -20.709091 1441.140503
[L_Leg03]
133 1686.963989 -0.000715 -0.000954 0.036582 -0.010186 99.876686 1686.963989
134 1686.963989 -0.000715 -0.000954 0.054179 -0.013351 96.016769 1686.963989
135 1686.963989 -0.000715 -0.000954 0.043642 -0.010377 98.801483 1686.963989
[L_Foot]
133 3041.570068 -30.715107 11.297464 28.514984 13.498802 58.053856 3041.746094
134 3041.570068 -30.715107 11.297464 29.199888 13.316807 58.606064 3041.746094
135 3041.570068 -30.715107 11.297464 29.101698 13.361760 58.282135 3041.746094
[L_Toe1_01]
133 -188.216690 -224.732346 -21.137953 94.536530 -11.874324 -178.539001 293.899567
134 -188.216690 -224.732346 -21.137953 94.536530 -11.874324 -178.539001 293.899567
135 -188.216690 -224.732346 -21.137953 94.536530 -11.874324 -178.539001 293.899567
[L_Toe2_01]
133 200.746536 -219.926590 148.838394 -89.340858 -33.859188 -48.500828 332.896027
134 200.746536 -219.926590 148.838394 -89.340477 -33.859127 -48.501644 332.896027
135 200.746536 -219.926590 148.838394 -89.340111 -33.859077 -48.502483 332.896027
[L_Toe3_01]
133 188.832520 -219.859131 -191.078659 -97.078232 10.785587 -57.879009 347.140900
134 188.832520 -219.859131 -191.078659 -97.078224 10.785590 -57.879002 347.140900
135 188.832520 -219.859131 -191.078659 -97.078224 10.785590 -57.879002 347.140900
[planeAlignerLeft]
133 0.812531 -811.448792 -0.314951 0.000000 -90.000000 -90.001900 811.449280
134 0.812531 -811.448792 -0.314951 0.000000 -90.000000 -90.001900 811.449280
135 0.812531 -811.448792 -0.314951 0.000000 -90.000000 -90.001900 811.449280
[L_Toe1_02]
133 413.761139 0.000477 0.000000 0.000203 -25.410625 -0.000182 413.761139
134 413.761139 0.000477 0.000000 0.000203 -25.410625 -0.000182 413.761139
135 413.761139 0.000477 0.000000 0.000203 -25.410625 -0.000182 413.761139
[L_Toe1_03]
133 464.317322 0.000358 -0.000089 0.004342 58.635971 0.004342 464.317322
134 464.317322 0.000358 -0.000089 0.004342 58.635971 0.004342 464.317322
135 464.317322 0.000358 -0.000089 0.004342 58.635971 0.004342 464.317322
[L_Toe2_02]
133 342.235809 -0.000477 0.000238 0.001191 -70.156425 0.001191 342.235809
134 342.235809 -0.000477 0.000238 0.001191 -70.156403 0.001191 342.235809
135 342.235809 -0.000477 0.000238 0.001191 -70.156403 0.001191 342.235809
[L_Toe2_03]
133 420.210846 -0.000715 0.000000 0.013353 79.915703 0.013353 420.210846
134 420.210846 -0.000715 0.000000 0.013353 79.915703 0.013353 420.210846
135 420.210846 -0.000715 0.000000 0.013353 79.915703 0.013353 420.210846
[L_Toe3_02]
133 329.270111 0.000954 0.000000 0.001176 -83.109146 0.001176 329.270111
134 329.270111 0.000954 0.000000 0.001176 -83.108635 0.001176 329.270111
135 329.270111 0.000954 0.000000 0.001176 -83.108070 0.001176 329.270111
[L_Toe3_03]
133 439.137451 -0.001907 0.000954 179.990875 65.540901 179.998047 439.137451
134 439.137451 -0.001907 0.000954 179.990875 65.540901 179.998047 439.137451
135 439.137451 -0.001907 0.000954 179.990875 65.540901 179.998047 439.137451
[planeLockWeightLeft]
133 -0.000954 0.000238 -0.000305 -0.011826 -0.004376 0.005620 0.001029
134 -0.000954 0.000238 -0.000305 -0.011826 -0.004376 0.005620 0.001029
135 -0.000954 0.000238 -0.000305 -0.011826 -0.004376 0.005620 0.001029
[R_Leg01]
133 761.455627 -0.001907 -0.000358 94.201096 27.116550 92.094597 761.455688
134 761.455627 -0.001907 -0.000358 91.120209 27.270382 91.083633 761.455688
135 761.455627 -0.001907 -0.000358 84.393631 25.656801 85.509682 761.455688
[R_Leg02]
133 1441.140625 0.000000 -0.000238 0.327651 0.171393 -7.352162 1441.140625
134 1441.140625 0.000000 -0.000238 0.328014 0.170688 -7.106377 1441.140625
135 1441.140625 0.000000 -0.000238 0.301344 0.186119 -15.038873 1441.140625
[R_Leg03]
133 1686.963989 0.000954 0.001431 -0.111019 0.010905 79.535522 1686.963989
134 1686.963989 0.000954 0.001431 -0.114194 0.006730 79.159447 1686.963989
135 1686.963989 0.000954 0.001431 -0.070969 0.011186 91.127426 1686.963989
[R_Foot]
133 3041.560059 -30.531288 -11.204481 30.310539 -26.112789 13.358775 3041.734131
134 3041.560059 -30.531288 -11.204481 34.058384 -25.008316 9.055120 3041.734131
135 3041.560059 -30.531288 -11.204481 40.689320 -22.710522 -1.328067 3041.734131
[planeAlignerRight]
133 -0.635147 -812.270569 -0.364304 0.000000 -89.960434 -90.005180 812.270874
134 -0.635147 -812.270569 -0.364304 0.000000 -89.960434 -90.005180 812.270874
135 -0.635147 -812.270569 -0.364304 0.000000 -89.960434 -90.005180 812.270874
[R_Toe1_01]
133 -188.383347 -224.864899 21.052242 85.747696 -0.421163 -132.897308 294.101532
134 -188.383347 -224.864899 21.052242 84.934692 -0.834718 -127.519623 294.101532
135 -188.383347 -224.864899 21.052242 84.256767 -1.082699 -123.261749 294.101532
[R_Toe2_01]
133 200.637817 -220.002121 -148.787384 -88.750717 21.273722 -19.283463 332.857574
134 200.637817 -220.002121 -148.787384 -86.722794 21.882784 -11.177165 332.857574
135 200.637817 -220.002121 -148.787384 -85.950455 22.395340 -7.252017 332.857574
[R_Toe3_01]
133 188.606735 -220.092957 191.126343 -74.810173 -17.037460 -38.959587 347.192566
134 188.606735 -220.092957 191.126343 -75.918236 -15.643341 -36.934486 347.192566
135 188.606735 -220.092957 191.126343 -76.864883 -14.682479 -34.878483 347.192566
[planeLockWeightRight]
133 -0.000477 0.000000 0.000000 -0.011823 -0.004379 -0.000027 0.000477
134 -0.000477 0.000000 0.000000 -0.011823 -0.004379 -0.000027 0.000477
135 -0.000477 0.000000 0.000000 -0.011823 -0.004379 -0.000027 0.000477
[R_Toe1_02]
133 413.762085 0.000477 -0.000119 0.001388 -25.465120 0.001388 413.762085
134 413.762085 0.000477 -0.000119 0.001385 -25.830252 0.001385 413.762085
135 413.762085 0.000477 -0.000119 0.001385 -25.898762 0.001385 413.762085
[R_Toe1_03]
133 464.317810 0.000000 0.001088 0.005088 63.306190 0.005088 464.317810
134 464.317810 0.000000 0.001088 0.004381 58.924465 0.004381 464.317810
135 464.317810 0.000000 0.001088 0.003885 54.829887 0.003885 464.317810
[R_Toe2_02]
133 342.234741 -0.000954 0.000238 0.001379 -26.612833 0.001379 342.234741
134 342.234741 -0.000954 0.000238 0.001554 -8.079362 0.001554 342.234741
135 342.234741 -0.000954 0.000238 0.001661 0.056062 0.001661 342.234741
[R_Toe2_03]
133 420.210846 0.000715 -0.000268 -0.002088 22.602522 0.006318 420.210846
134 420.210846 0.000715 -0.000268 -0.002911 6.764719 0.006444 420.210846
135 420.210846 0.000715 -0.000268 -0.008224 0.105520 0.006597 420.210846
[R_Toe3_02]
133 329.270355 -0.000477 -0.000954 -0.002422 -57.088184 -0.002422 329.270355
134 329.270355 -0.000477 -0.000954 -0.002458 -51.798588 -0.002458 329.270355
135 329.270355 -0.000477 -0.000954 -0.002499 -46.765308 -0.002499 329.270355
[R_Toe3_03]
133 439.137939 0.000238 0.001431 0.010994 52.749447 0.007304 439.137939
134 439.137939 0.000238 0.001431 0.009698 46.079704 0.005927 439.137939
135 439.137939 0.000238 0.001431 0.006647 40.318718 -0.001060 439.137939
[Rear_Leg02]
133 1162.777710 -0.029802 0.005960 8.883090 12.670787 -17.651411 1162.777710
134 1162.777710 -0.029802 0.005960 10.305196 11.094348 -9.867324 1162.777710
135 1162.777710 -0.029802 0.005960 9.343993 10.374098 -11.319267 1162.777710
[Rear_Leg03]
133 607.192505 -0.013351 -0.073195 0.003955 0.005544 42.794373 607.192505
134 607.192505 -0.013351 -0.073195 0.003742 0.005690 38.444588 607.192505
135 607.192505 -0.013351 -0.073195 0.003760 0.005678 38.811638 607.192505
[Rear_Leg04]
133 995.874512 -0.020504 -0.011921 -0.031074 -0.012151 23.069159 995.874573
134 995.874512 -0.020504 -0.011921 -0.024786 -0.009556 17.303167 995.874573
135 995.874512 -0.020504 -0.011921 -0.029716 -0.008689 17.773840 995.874573
[Rear_Foot]
133 3096.176270 -0.067472 -0.041425 32.720890 64.329865 -147.198578 3096.176270
134 3096.176270 -0.067472 -0.041425 32.029709 64.401573 -146.136414 3096.176270
135 3096.176270 -0.067472 -0.041425 30.332058 65.335846 -147.712097 3096.176270
[planeAlignerCenter]
133 0.350077 0.966311 -838.790894 0.000009 0.000003 -179.999985 838.791565
134 0.350077 0.966311 -838.790894 0.000009 0.000003 -179.999985 838.791565
135 0.350077 0.966311 -838.790894 0.000009 0.000003 -179.999985 838.791565
[Rear_Toe1_01]
133 0.653352 83.966492 -371.173737 4.848417 26.576679 103.430916 380.553192
134 0.653352 83.966492 -371.173737 4.841837 26.516857 103.428856 380.553192
135 0.653352 83.966492 -371.173737 4.835260 26.457020 103.426781 380.553192
[Rear_Toe2_01]
133 178.200760 -294.826019 -362.060547 -8.553094 19.788698 -73.316376 499.765686
134 178.200760 -294.826019 -362.060547 -8.549925 19.739620 -73.317413 499.765686
135 178.200760 -294.826019 -362.060547 -8.546756 19.690544 -73.318459 499.765686
[Rear_Toe3_01]
133 -153.359680 -308.780914 -362.060852 4.349138 16.832218 -119.405357 499.952881
134 -153.359680 -308.780914 -362.060852 4.356228 16.792715 -119.401077 499.952881
135 -153.359680 -308.780914 -362.060852 4.363316 16.753206 -119.396820 499.952881
[planeLockWeightCenter]
133 -0.000062 0.000238 0.000000 -0.011814 -0.004373 -0.000015 0.000246
134 -0.000062 0.000238 0.000000 -0.011814 -0.004373 -0.000015 0.000246
135 -0.000062 0.000238 0.000000 -0.011814 -0.004373 -0.000015 0.000246
[Rear_Toe1_02]
133 379.707825 0.194073 0.000477 0.000926 -33.347168 0.002694 379.707855
134 379.707825 0.194073 0.000477 0.000993 -33.362457 0.002467 379.707855
135 379.707825 0.194073 0.000477 0.001061 -33.377724 0.002241 379.707855
[Rear_Toe1_03]
133 500.129700 0.165701 0.000119 -0.004571 66.173904 -0.000997 500.129761
134 500.129700 0.165701 0.000119 -0.004588 66.325546 -0.001015 500.129761
135 500.129700 0.165701 0.000119 -0.004605 66.477180 -0.001034 500.129761
[Rear_Toe2_02]
133 340.494507 0.000238 -0.000954 0.001179 -79.254402 0.001179 340.494507
134 340.494507 0.000238 -0.000954 0.001179 -79.244987 0.001179 340.494507
135 340.494507 0.000238 -0.000954 0.001179 -79.235703 0.001179 340.494507
[Rear_Toe2_03]
133 433.103577 0.000000 0.000238 0.033535 85.988678 0.033535 433.103546
134 433.103577 0.000000 0.000238 0.033354 85.967018 0.033354 433.103546
135 433.103577 0.000000 0.000238 0.033176 85.945419 0.033176 433.103546
[Rear_Toe3_02]
133 340.494141 -0.000358 -0.000477 -0.002471 -50.205299 -0.002471 340.494171
134 340.494141 -0.000358 -0.000477 -0.002471 -50.177979 -0.002471 340.494171
135 340.494141 -0.000358 -0.000477 -0.002471 -50.150692 -0.002471 340.494171
[Rear_Toe3_03]
133 433.103577 0.001431 -0.000238 0.000407 44.562466 -0.003384 433.103546
134 433.103577 0.001431 -0.000238 0.000408 44.533318 -0.003383 433.103546
135 433.103577 0.001431 -0.000238 0.000409 44.504181 -0.003382 433.103546
[Back_Bone]
133 1312.175781 -701.934692 0.000954 0.014067 0.001809 -85.606789 1488.125488
134 1312.175781 -701.934692 0.000954 0.007078 0.002077 -85.606804 1488.125488
135 1312.175781 -701.934692 0.000954 0.000090 0.002345 -85.606705 1488.125488
[Head]
133 1406.159424 809.709290 0.001431 0.049075 11.440310 42.487236 1622.625488
134 1406.159424 809.709290 0.001431 0.036621 11.432901 42.492222 1622.625488
135 1406.159424 809.709290 0.001431 0.024165 11.425493 42.497200 1622.625488
[Motor_Bone]
133 1158.364380 -417.834747 0.000477 -0.095352 0.116218 -106.001282 1231.419434
134 1158.364380 -417.834747 0.000477 -0.095352 0.113132 -105.994690 1231.419434
135 1158.364380 -417.834747 0.000477 -0.095353 0.110046 -105.988113 1231.419434
[Ping_Mechanism]
133 1245.990967 -447.284668 -27.166710 0.000103 -0.000053 82.120995 1324.120483
134 1247.431763 -447.830017 -28.101099 0.000103 -0.000053 82.120995 1325.679932
135 1248.872925 -448.375519 -29.034857 0.000103 -0.000053 82.120995 1327.240356
[BN_LookIK]
133 193.241119 1380.371704 -0.002861 0.000000 89.965736 -31.038179 1393.832153
134 193.241119 1380.371704 -0.002861 0.000000 89.965736 -31.038179 1393.832153
135 193.241119 1380.371704 -0.002861 0.000000 89.965736 -31.038179 1393.832153
[bottomMouth]
133 -435.092926 615.759399 -0.000954 -0.000022 0.000016 73.527184 753.966492
134 -435.092926 615.759399 -0.000954 -0.000022 0.000016 73.527184 753.966492
135 -435.092926 615.759399 -0.000954 -0.000022 0.000016 73.527184 753.966492
[L_Mouth01]
133 554.440979 7.658243 838.222046 150.204178 23.759130 109.605339 1005.027161
134 554.440979 7.658243 838.222046 150.204178 23.759130 109.605339 1005.027161
135 554.440979 7.658243 838.222046 150.204178 23.759130 109.605339 1005.027161
[L_mouthFront]
133 551.629089 934.514771 339.150421 0.000081 2.804060 79.119301 1136.941284
134 551.629089 934.514771 339.150421 0.000081 2.804060 79.119301 1136.941284
135 551.629089 934.514771 339.150421 0.000081 2.804060 79.119301 1136.941284
[mouthGun]
133 55.332661 1627.420898 0.000000 0.000023 0.000009 -11.038128 1628.361328
134 55.332661 1627.420898 0.000000 0.000023 0.000009 -11.038128 1628.361328
135 55.332661 1627.420898 0.000000 0.000023 0.000009 -11.038128 1628.361328
[R_Mouth01]
133 554.442383 7.659197 -838.223938 29.795891 -23.759109 109.605331 1005.029541
134 554.442383 7.659197 -838.223938 29.795891 -23.759109 109.605331 1005.029541
135 554.442383 7.659197 -838.223938 29.795891 -23.759109 109.605331 1005.029541
[R_mouthFront]
133 551.629089 934.514282 -339.151367 0.000029 -2.803930 79.119133 1136.941162
134 551.629089 934.514282 -339.151367 0.000029 -2.803930 79.119133 1136.941162
135 551.629089 934.514282 -339.151367 0.000029 -2.803930 79.119133 1136.941162
[TopMouth]
133 461.269867 -56.106091 -0.008583 -0.000059 -0.000268 92.025169 464.669525
134 461.269867 -56.106091 -0.008583 -0.000059 -0.000268 92.025169 464.669525
135 461.269867 -56.106091 -0.008583 -0.000059 -0.000268 92.025169 464.669525
[weapon_bone]
133 -987.239868 1448.372803 0.001431 0.000000 89.965736 -31.038221 1752.833740
134 -987.239868 1448.372803 0.001431 0.000000 89.965736 -31.038221 1752.833740
135 -987.239868 1448.372803 0.001431 0.000000 89.965736 -31.038221 1752.833740
